<?xml version="1.0" encoding="UTF-8"?>
<svg width="64" height="64" viewBox="0 0 64 64" fill="none" xmlns="http://www.w3.org/2000/svg">
  <defs>
    <linearGradient id="researchGradient" x1="0%" y1="0%" x2="100%" y2="100%">
      <stop offset="0%" style="stop-color:#0066cc;stop-opacity:1" />
      <stop offset="100%" style="stop-color:#004499;stop-opacity:0.8" />
    </linearGradient>
    <linearGradient id="accentGradient" x1="0%" y1="0%" x2="100%" y2="100%">
      <stop offset="0%" style="stop-color:#e6f2ff;stop-opacity:0.9" />
      <stop offset="100%" style="stop-color:#0066cc;stop-opacity:0.3" />
    </linearGradient>
  </defs>
  
  <!-- Document/paper base -->
  <rect x="14" y="10" width="36" height="48" rx="3" fill="none" stroke="url(#researchGradient)" stroke-width="1.5"/>
  
  <!-- Header section -->
  <rect x="18" y="16" width="28" height="2" rx="1" fill="url(#researchGradient)" opacity="0.8"/>
  <rect x="18" y="20" width="20" height="1.5" rx="0.75" fill="url(#researchGradient)" opacity="0.6"/>
  
  <!-- Content lines representing text -->
  <rect x="18" y="26" width="28" height="1" rx="0.5" fill="url(#accentGradient)" opacity="0.7"/>
  <rect x="18" y="29" width="24" height="1" rx="0.5" fill="url(#accentGradient)" opacity="0.6"/>
  <rect x="18" y="32" width="26" height="1" rx="0.5" fill="url(#accentGradient)" opacity="0.5"/>
  <rect x="18" y="35" width="22" height="1" rx="0.5" fill="url(#accentGradient)" opacity="0.4"/>
  
  <!-- Graph/chart section -->
  <rect x="18" y="40" width="28" height="12" rx="2" fill="none" stroke="url(#researchGradient)" stroke-width="1" opacity="0.6"/>
  
  <!-- Simple data visualization -->
  <rect x="20" y="48" width="2" height="3" fill="url(#researchGradient)" opacity="0.8"/>
  <rect x="24" y="45" width="2" height="6" fill="url(#researchGradient)" opacity="0.7"/>
  <rect x="28" y="47" width="2" height="4" fill="url(#researchGradient)" opacity="0.6"/>
  <rect x="32" y="43" width="2" height="8" fill="url(#researchGradient)" opacity="0.8"/>
  <rect x="36" y="46" width="2" height="5" fill="url(#researchGradient)" opacity="0.7"/>
  <rect x="40" y="44" width="2" height="7" fill="url(#researchGradient)" opacity="0.6"/>
  
  <!-- Corner fold effect -->
  <path d="M42 10 L50 10 L50 18 Z" fill="url(#accentGradient)" opacity="0.4"/>
  <path d="M42 10 L42 18 L50 18" fill="none" stroke="url(#researchGradient)" stroke-width="1" opacity="0.6"/>
</svg>